<svg width="1200" height="800" viewBox="0 0 1200 800" fill="none" xmlns="http://www.w3.org/2000/svg">
  <rect width="1200" height="800" fill="#EEF3F6"/>
  <rect x="390" y="40" width="420" height="720" rx="34" fill="#0F172A"/>
  <rect x="407" y="62" width="386" height="676" rx="26" fill="#F7FAFC"/>
  <text x="435" y="112" fill="#0F172A" font-family="Arial" font-size="26" font-weight="800">Shah Electronics</text>
  <text x="435" y="143" fill="#64748B" font-family="Arial" font-size="15">Customer ledger</text>
  <rect x="435" y="170" width="325" height="108" rx="14" fill="#FFFFFF" stroke="#DDE7EE"/>
  <rect x="435" y="170" width="6" height="108" rx="3" fill="#F59E0B"/>
  <text x="458" y="208" fill="#64748B" font-family="Arial" font-size="15" font-weight="700">CURRENT BALANCE</text>
  <text x="458" y="250" fill="#92400E" font-family="Arial" font-size="34" font-weight="800">They owe INR 24,000</text>
  <rect x="435" y="302" width="101" height="58" rx="12" fill="#FFF7E6" stroke="#F5D08B"/>
  <text x="456" y="337" fill="#92400E" font-family="Arial" font-size="15" font-weight="800">Add Credit</text>
  <rect x="548" y="302" width="104" height="58" rx="12" fill="#E6F7EF" stroke="#B6E8D0"/>
  <text x="565" y="337" fill="#07865F" font-family="Arial" font-size="15" font-weight="800">Payment</text>
  <rect x="664" y="302" width="96" height="58" rx="12" fill="#FFFFFF" stroke="#DDE7EE"/>
  <text x="681" y="337" fill="#145CFF" font-family="Arial" font-size="15" font-weight="800">Statement</text>
  <text x="435" y="404" fill="#0F172A" font-family="Arial" font-size="19" font-weight="800">Summary</text>
  <rect x="435" y="424" width="154" height="72" rx="12" fill="#FFFFFF" stroke="#DDE7EE"/>
  <text x="452" y="453" fill="#64748B" font-family="Arial" font-size="12" font-weight="700">CREDIT GIVEN</text>
  <text x="452" y="480" fill="#92400E" font-family="Arial" font-size="20" font-weight="800">INR 42,000</text>
  <rect x="606" y="424" width="154" height="72" rx="12" fill="#FFFFFF" stroke="#DDE7EE"/>
  <text x="623" y="453" fill="#64748B" font-family="Arial" font-size="12" font-weight="700">PAYMENTS</text>
  <text x="623" y="480" fill="#07865F" font-family="Arial" font-size="20" font-weight="800">INR 18,000</text>
  <text x="435" y="538" fill="#0F172A" font-family="Arial" font-size="19" font-weight="800">Apr 2026</text>
  <rect x="435" y="558" width="325" height="66" rx="12" fill="#FFFFFF" stroke="#DDE7EE"/>
  <rect x="454" y="578" width="64" height="22" rx="11" fill="#E6F7EF"/>
  <text x="467" y="594" fill="#07865F" font-family="Arial" font-size="12" font-weight="700">Payment</text>
  <text x="535" y="585" fill="#0F172A" font-family="Arial" font-size="15" font-weight="700">Cash received</text>
  <text x="535" y="607" fill="#64748B" font-family="Arial" font-size="12">Balance after entry INR 24,000</text>
  <text x="683" y="594" fill="#07865F" font-family="Arial" font-size="16" font-weight="800">1,000</text>
  <rect x="435" y="638" width="325" height="66" rx="12" fill="#FFFFFF" stroke="#DDE7EE"/>
  <rect x="454" y="658" width="58" height="22" rx="11" fill="#FFF7E6"/>
  <text x="467" y="674" fill="#92400E" font-family="Arial" font-size="12" font-weight="700">Credit</text>
  <text x="535" y="665" fill="#0F172A" font-family="Arial" font-size="15" font-weight="700">Printer repair service</text>
  <text x="535" y="687" fill="#64748B" font-family="Arial" font-size="12">Tap row to edit entry</text>
  <text x="683" y="674" fill="#92400E" font-family="Arial" font-size="16" font-weight="800">1,500</text>
  <text x="60" y="96" fill="#145CFF" font-family="Arial" font-size="18" font-weight="800">Interface preview</text>
  <text x="60" y="130" fill="#0F172A" font-family="Arial" font-size="42" font-weight="800">Customer ledger</text>
  <text x="60" y="168" fill="#475569" font-family="Arial" font-size="20">Clear balance, quick credit/payment actions, grouped history.</text>
</svg>
