<svg width="1200" height="800" viewBox="0 0 1200 800" fill="none" xmlns="http://www.w3.org/2000/svg">
  <rect width="1200" height="800" fill="#EEF3F6"/>
  <rect x="382" y="42" width="436" height="716" rx="18" fill="#FFFFFF" stroke="#DDE7EE"/>
  <rect x="414" y="78" width="372" height="622" rx="4" fill="#FFFFFF" stroke="#CBD5E1"/>
  <rect x="414" y="78" width="372" height="8" fill="#145CFF"/>
  <text x="438" y="122" fill="#0F172A" font-family="Arial" font-size="24" font-weight="800">TAX INVOICE</text>
  <text x="438" y="151" fill="#64748B" font-family="Arial" font-size="13">Rudraix Trading Co. · GSTIN 24ABCDE1234F1Z5</text>
  <text x="438" y="176" fill="#64748B" font-family="Arial" font-size="13">Invoice RUN-001 · Apr 21, 2026</text>
  <line x1="438" y1="204" x2="762" y2="204" stroke="#DDE7EE"/>
  <text x="438" y="234" fill="#0F172A" font-family="Arial" font-size="15" font-weight="800">Bill To</text>
  <text x="438" y="260" fill="#475569" font-family="Arial" font-size="14">Shah Electronics</text>
  <text x="438" y="282" fill="#475569" font-family="Arial" font-size="14">Ahmedabad, Gujarat</text>
  <rect x="438" y="318" width="324" height="30" fill="#F1F5F9"/>
  <text x="448" y="338" fill="#334155" font-family="Arial" font-size="12" font-weight="800">ITEM</text>
  <text x="595" y="338" fill="#334155" font-family="Arial" font-size="12" font-weight="800">QTY</text>
  <text x="643" y="338" fill="#334155" font-family="Arial" font-size="12" font-weight="800">TAX</text>
  <text x="707" y="338" fill="#334155" font-family="Arial" font-size="12" font-weight="800">TOTAL</text>
  <text x="448" y="374" fill="#0F172A" font-family="Arial" font-size="14">Printer Fix</text>
  <text x="448" y="394" fill="#64748B" font-family="Arial" font-size="12">Service description</text>
  <text x="600" y="374" fill="#0F172A" font-family="Arial" font-size="14">1</text>
  <text x="644" y="374" fill="#0F172A" font-family="Arial" font-size="14">18%</text>
  <text x="704" y="374" fill="#0F172A" font-family="Arial" font-size="14" font-weight="800">1,770</text>
  <line x1="438" y1="418" x2="762" y2="418" stroke="#DDE7EE"/>
  <text x="592" y="454" fill="#64748B" font-family="Arial" font-size="14">Subtotal</text>
  <text x="704" y="454" fill="#0F172A" font-family="Arial" font-size="14">1,500</text>
  <text x="592" y="482" fill="#64748B" font-family="Arial" font-size="14">GST 18%</text>
  <text x="704" y="482" fill="#0F172A" font-family="Arial" font-size="14">270</text>
  <rect x="584" y="504" width="178" height="48" rx="8" fill="#EFF6FF"/>
  <text x="602" y="535" fill="#145CFF" font-family="Arial" font-size="18" font-weight="800">Total INR 1,770</text>
  <text x="438" y="610" fill="#0F172A" font-family="Arial" font-size="14" font-weight="800">Authorized Signature</text>
  <line x1="438" y1="646" x2="585" y2="646" stroke="#CBD5E1"/>
  <text x="438" y="668" fill="#64748B" font-family="Arial" font-size="12">Owner · Rudraix Trading Co.</text>
  <rect x="414" y="710" width="372" height="48" rx="0" fill="#0F172A"/>
  <text x="456" y="740" fill="#FFFFFF" font-family="Arial" font-size="15" font-weight="800">Share PDF</text>
  <text x="585" y="740" fill="#FFFFFF" font-family="Arial" font-size="15" font-weight="800">Save</text>
  <text x="678" y="740" fill="#FFFFFF" font-family="Arial" font-size="15" font-weight="800">Print</text>
  <text x="60" y="96" fill="#145CFF" font-family="Arial" font-size="18" font-weight="800">Interface preview</text>
  <text x="60" y="130" fill="#0F172A" font-family="Arial" font-size="42" font-weight="800">Invoice PDF preview</text>
  <text x="60" y="168" fill="#475569" font-family="Arial" font-size="20">Professional invoice preview with tax, totals, branding, and actions.</text>
</svg>
